<svg xmlns="http://www.w3.org/2000/svg" height="800" width="1200" viewBox="-104.09775 -41.54125 902.1805 249.2475"><path d="M0 0h162.406v166.165H0z" fill="#c5412b"/><path d="M21.852 102.207l-.167-33.888s18.084 6.442 30.44 6.655l.2 21.718s-14.542-.005-30.08 5.772"/><path style="marker:none" d="M58.5 74.775l9.96-.2.2 22.117h-9.762zm26.096 4.282l-6.431 6.862 6.845 6.942 6.337-7.183zm-9.762-20.534l21.393-.1.2 10.349H75.132zm27.861 30.348L87.47 103.996l7.463 7.263 14.328-14.567z" color="#000" overflow="visible"/><path d="M68.647 21.168L102.535 21s-6.74 18.98-6.953 31.334l-20.624.1s-.791-15.337-6.568-30.875m72.892 96.694l-23.78 24.144s-8.703-18.163-17.313-27.027l14.473-14.694s11.433 10.256 26.523 17.117"/><path d="M178.947 0h117.294v34.586H178.947zm0 34.586v131.58h36.09v-48.373h15.79v48.372h65.414v-35.338h-33.083v-13.034h33.083V34.586h-33.083V83.39h-48.12V34.586zM314.286 0v166.165h115.037V0h-33.082v130.827h-47.369V0zm247.368 0H447.368v96.692h80.452v34.135h-80.452v35.338h114.286V61.371h-80.451V34.586h80.451zm17.293 0h115.038v34.586h-40.602v131.58h-32.33V34.585h-42.106z" style="marker:none" overflow="visible" color="#000" fill="#999"/></svg>